<svg version="1.2" xmlns="http://www.w3.org/2000/svg" viewBox="0 0 500 500" width="500" height="500">
	<title>New Project</title>
	<style>
		.s0 { fill: #000000 } 
	</style>
	<path id="cashada" class="s0" aria-label="cashada"  d="m57.4 236.7v9.8q-4.6-2.5-9.3-3.7-4.6-1.2-9.3-1.2-10.6 0-16.5 6.5-5.8 6.4-5.8 18.1 0 11.6 5.8 18.1 5.9 6.5 16.5 6.5 4.7 0 9.3-1.2 4.7-1.3 9.3-3.7v9.7q-4.5 2-9.5 3-4.8 1.1-10.3 1.1-15 0-23.8-9.1-8.8-9.1-8.8-24.4 0-15.6 8.9-24.6 8.9-8.9 24.4-8.9 5 0 9.8 1 4.8 1 9.3 3zm59.8 29.3h-10.8q-13.2 0-18.2 2.9-5.1 2.9-5.1 9.9 0 5.5 3.8 8.8 3.8 3.3 10.4 3.3 9 0 14.4-6.2 5.5-6.2 5.5-16.4zm10.9-4.3v36.3h-10.9v-9.6q-3.7 5.8-9.2 8.6-5.6 2.7-13.6 2.7-10.2 0-16.2-5.5-6-5.5-6-14.7 0-10.8 7.4-16.2 7.5-5.5 22.4-5.5h15.2v-1q0-7.3-4.9-11.2-4.9-4-13.9-4-5.6 0-11 1.3-5.4 1.3-10.4 4v-9.7q6-2.2 11.6-3.3 5.6-1.2 11-1.2 14.3 0 21.4 7.2 7.1 7.2 7.1 21.8zm64.6-25.5v9.9q-4.6-2.3-9.5-3.5-5-1.1-10.3-1.1-8.1 0-12.2 2.4-4 2.4-4 7.2 0 3.6 2.9 5.7 2.9 2.1 11.6 3.9l3.7 0.8q11.6 2.4 16.5 6.8 4.9 4.3 4.9 12.1 0 8.9-7.3 14.1-7.3 5.2-20.1 5.2-5.3 0-11.1-1-5.7-1-12.1-3v-10.8q6 3 11.9 4.5 5.8 1.5 11.6 1.5 7.6 0 11.8-2.5 4.1-2.5 4.1-7.2 0-4.2-3-6.5-3-2.3-13.1-4.4l-3.7-0.8q-10.2-2.1-14.7-6.3-4.4-4.3-4.4-11.7 0-9 6.6-13.9 6.6-4.9 18.8-4.9 6 0 11.3 0.9 5.4 0.9 9.8 2.6zm76 23.4v38.4h-10.9v-38.1q0-9.1-3.7-13.6-3.6-4.4-11-4.4-8.8 0-13.9 5.4-5.1 5.4-5.1 14.7v36h-10.9v-88.5h10.9v34.7q3.9-5.8 9.2-8.6 5.3-2.9 12.2-2.9 11.5 0 17.3 6.9 5.9 6.7 5.9 20zm62.6 6.4h-10.8q-13.2 0-18.3 2.9-5.1 2.9-5.1 9.9 0 5.6 3.8 8.9 3.8 3.2 10.4 3.2 9 0 14.5-6.1 5.5-6.2 5.5-16.5zm10.9-4.3v36.4h-10.9v-9.7q-3.7 5.8-9.3 8.6-5.6 2.7-13.6 2.7-10.2 0-16.2-5.4-6-5.6-6-14.8 0-10.7 7.5-16.2 7.5-5.5 22.3-5.5h15.3v-1q0-7.2-5-11.2-4.9-3.9-13.8-3.9-5.7 0-11.1 1.3-5.4 1.3-10.3 3.9v-9.7q5.9-2.2 11.6-3.3 5.6-1.1 10.9-1.1 14.4 0 21.5 7.1 7.1 7.2 7.1 21.8zm65.9-17.7v-34.5h10.9v88.6h-10.9v-9.6q-3.4 5.7-8.7 8.5-5.2 2.7-12.5 2.7-12 0-19.6-9.2-7.5-9.2-7.5-24.3 0-15 7.5-24.2 7.6-9.2 19.6-9.2 7.3 0 12.5 2.8 5.3 2.7 8.7 8.4zm-37 22.2q0 11.6 4.9 18.2 4.9 6.6 13.6 6.6 8.6 0 13.6-6.6 4.9-6.6 4.9-18.2 0-11.5-4.9-18.1-5-6.6-13.6-6.6-8.7 0-13.6 6.6-4.9 6.6-4.9 18.1zm111.2-0.2h-10.8q-13.2 0-18.2 2.9-5.1 2.9-5.1 9.9 0 5.6 3.8 8.9 3.8 3.3 10.4 3.3 9 0 14.4-6.2 5.5-6.2 5.5-16.4zm10.9-4.4v36.4h-10.9v-9.7q-3.7 5.8-9.2 8.6-5.6 2.8-13.6 2.8-10.2 0-16.2-5.5-6-5.5-6-14.8 0-10.7 7.4-16.2 7.5-5.4 22.4-5.4h15.2v-1.1q0-7.2-4.9-11.1-4.9-4-13.9-4-5.6 0-11 1.3-5.4 1.3-10.4 3.9v-9.6q6-2.3 11.6-3.4 5.6-1.1 11-1.1 14.3 0 21.4 7.2 7.1 7.2 7.1 21.7z"/>
</svg>